<?xml version="1.0" encoding="UTF-8" standalone="no"?>
<!-- Created with Inkscape (http://www.inkscape.org/) -->

<svg
   xmlns:dc="http://purl.org/dc/elements/1.1/"
   xmlns:cc="http://creativecommons.org/ns#"
   xmlns:rdf="http://www.w3.org/1999/02/22-rdf-syntax-ns#"
   xmlns:svg="http://www.w3.org/2000/svg"
   xmlns="http://www.w3.org/2000/svg"
   xmlns:sodipodi="http://sodipodi.sourceforge.net/DTD/sodipodi-0.dtd"
   xmlns:inkscape="http://www.inkscape.org/namespaces/inkscape"
   width="61.383339mm"
   height="39.940277mm"
   viewBox="0 0 61.383339 39.940277"
   version="1.1"
   id="svg3924"
   inkscape:version="0.92.5 (2060ec1f9f, 2020-04-08)"
   sodipodi:docname="credit-card-gimp-3x-inkscape.svg">
  <defs
     id="defs3918" />
  <sodipodi:namedview
     id="base"
     pagecolor="#ffffff"
     bordercolor="#666666"
     borderopacity="1.0"
     inkscape:pageopacity="0.0"
     inkscape:pageshadow="2"
     inkscape:zoom="0.35"
     inkscape:cx="376"
     inkscape:cy="-384.52231"
     inkscape:document-units="mm"
     inkscape:current-layer="layer1"
     showgrid="false"
     inkscape:window-width="1848"
     inkscape:window-height="1016"
     inkscape:window-x="72"
     inkscape:window-y="27"
     inkscape:window-maximized="1" />
  <metadata
     id="metadata3921">
    <rdf:RDF>
      <cc:Work
         rdf:about="">
        <dc:format>image/svg+xml</dc:format>
        <dc:type
           rdf:resource="http://purl.org/dc/dcmitype/StillImage" />
        <dc:title></dc:title>
      </cc:Work>
    </rdf:RDF>
  </metadata>
  <g
     inkscape:label="Layer 1"
     inkscape:groupmode="layer"
     id="layer1"
     transform="translate(-6.3499995,-7.1548611)">
    <path
       style="fill:#000000;stroke-width:0.35277778"
       d="m 11.64167,46.964253 c -2.6127605,-0.91254 -3.8741705,-1.998028 -4.7456705,-4.083809 -0.46274,-1.107491 -0.546,-3.515901 -0.546,-15.793321 0,-15.5616 0.044,-15.98452 1.86363,-17.9214501 1.9580105,-2.08421 0.90104,-2.01049 28.8280405,-2.01049 27.92699,0 26.87002,-0.0737 28.82804,2.01049 1.81965,1.9369301 1.86363,2.3598501 1.86363,17.9214501 0,15.544541 -0.0457,15.986302 -1.85078,17.90777 -1.99681,2.125512 -0.54141,2.018112 -28.31173,2.089182 -13.97,0.0358 -25.63812,-0.0182 -25.92916,-0.119822 z m 51.18059,-2.46692 c 1.16285,-0.46528 1.58718,-0.894029 2.1238,-2.145908 0.5908,-1.37827 0.67061,-2.482292 0.67061,-9.276322 0,-7.5693 -0.0145,-7.72201 -0.78405,-8.26103 -0.69305,-0.48543 -3.91856,-0.54917 -27.79095,-0.54917 -23.8724,0 -27.0979005,0.0637 -27.7909505,0.54917 -0.76918,0.53875 -0.78405,0.69409 -0.78405,8.19029 0,9.136552 0.27725,10.342192 2.6233905,11.407812 1.34884,0.61265 2.87665,0.651578 25.85627,0.65887 21.87385,0.007 24.57439,-0.0529 25.87593,-0.573712 z m -48.35044,-5.75373 c -0.65754,-1.22861 0.52481,-1.42592 8.54451,-1.42592 7.90997,0 9.04097,0.19982 8.53874,1.50861 -0.21165,0.55154 -0.9992,0.60805 -8.47346,0.60805 -7.82017,0 -8.25896,-0.0352 -8.60979,-0.69074 z m 36.75016,-0.35267 c -1.76776,-1.76775 -1.89872,-5.20979 -0.27567,-7.24529 0.7175,-0.89982 1.08572,-1.03753 3.12091,-1.16712 4.23585,-0.26972 5.90501,1.06527 5.90501,4.72281 0,3.3411 -1.54458,4.73301 -5.25212,4.73301 -2.2493,0 -2.54204,-0.0873 -3.49813,-1.04341 z m 5.91649,-1.58853 c 0.57284,-0.69022 0.58905,-3.55135 0.024,-4.23222 -0.61509,-0.74115 -3.65267,-0.7341 -4.39697,0.0102 -0.7417,0.74169 -0.72356,3.26007 0.0295,4.09216 0.73514,0.81233 3.70346,0.90108 4.34351,0.12986 z m -42.65136,-2.96911 c -0.71742,-1.34051 0.13564,-1.47299 8.84033,-1.37292 l 8.24617,0.0948 v 0.88194 0.88195 l -8.36266,0.0945 c -7.92727,0.0896 -8.38147,0.0594 -8.72384,-0.58032 z m 50.70623,-12.10839 c 0.62597,-0.62597 0.53415,-3.64878 -0.13104,-4.31397 -0.49447,-0.49447 -3.52166,-0.55437 -28.02063,-0.55437 -24.49897,0 -27.5261605,0.0599 -28.0206405,0.55437 -0.66519,0.66519 -0.757,3.688 -0.13103,4.31397 0.61301,0.61301 55.6903205,0.61301 56.3033405,0 z m 0.0936,-7.57242 c 0.31271,-0.3128 0.25904,-0.80873 -0.22462,-2.07516 -0.51503,-1.3486 -0.90734,-1.78759 -2.06908,-2.3152501 -1.34884,-0.61265 -2.87664,-0.65158 -25.85628,-0.65887 -27.9051305,-0.009 -26.78346,-0.1178 -27.9997205,2.7196201 -0.85019,1.9834 -0.84145,2.16487 0.12314,2.55664 1.2435605,0.50508 55.5145005,0.28521 56.0265605,-0.22698 z"
       id="path3907"
       inkscape:connector-curvature="0" />
  </g>
</svg>
