<?xml version="1.0" encoding="UTF-8" standalone="no"?>
<!-- Created with Inkscape (http://www.inkscape.org/) -->

<svg
   xmlns:dc="http://purl.org/dc/elements/1.1/"
   xmlns:cc="http://creativecommons.org/ns#"
   xmlns:rdf="http://www.w3.org/1999/02/22-rdf-syntax-ns#"
   xmlns:svg="http://www.w3.org/2000/svg"
   xmlns="http://www.w3.org/2000/svg"
   xmlns:sodipodi="http://sodipodi.sourceforge.net/DTD/sodipodi-0.dtd"
   xmlns:inkscape="http://www.inkscape.org/namespaces/inkscape"
   width="57.104908mm"
   height="42.329865mm"
   viewBox="0 0 57.104908 42.329865"
   version="1.1"
   id="svg8"
   inkscape:version="0.92.5 (2060ec1f9f, 2020-04-08)"
   sodipodi:docname="mailbox.svg">
  <defs
     id="defs2" />
  <sodipodi:namedview
     id="base"
     pagecolor="#ffffff"
     bordercolor="#666666"
     borderopacity="1.0"
     inkscape:pageopacity="0.0"
     inkscape:pageshadow="2"
     inkscape:zoom="0.35"
     inkscape:cx="97.333516"
     inkscape:cy="137.12153"
     inkscape:document-units="mm"
     inkscape:current-layer="layer1"
     showgrid="false"
     inkscape:window-width="1848"
     inkscape:window-height="1016"
     inkscape:window-x="72"
     inkscape:window-y="27"
     inkscape:window-maximized="1" />
  <metadata
     id="metadata5">
    <rdf:RDF>
      <cc:Work
         rdf:about="">
        <dc:format>image/svg+xml</dc:format>
        <dc:type
           rdf:resource="http://purl.org/dc/dcmitype/StillImage" />
        <dc:title></dc:title>
      </cc:Work>
    </rdf:RDF>
  </metadata>
  <g
     inkscape:label="Layer 1"
     inkscape:groupmode="layer"
     id="layer1"
     transform="translate(-80.080507,-142.78354)">
    <path
       style="fill:#000000;stroke-width:0.35277778"
       d="m 82.100986,184.50919 c -1.985938,-1.23176 -2.112804,-1.93669 -1.985383,-11.03181 0.115115,-8.21671 0.124736,-8.30776 1.084184,-10.26015 0.959025,-1.95154 2.287734,-3.40079 4.315151,-4.70661 1.962656,-1.26411 4.8395,-1.58837 14.207783,-1.6014 l 8.907639,-0.0124 v -6.50119 c 0,-5.43981 0.0905,-6.5917 0.55436,-7.05556 0.46148,-0.46147 1.58256,-0.55436 6.69037,-0.55436 7.24455,0 6.86888,-0.245 6.86157,4.47472 -0.008,5.06083 0.41158,4.69669 -5.41619,4.70232 -6.81069,0.007 -6.62902,-0.066 -6.50091,2.59806 l 0.10386,2.15962 8.64305,0.21572 c 4.75368,0.11864 9.20797,0.37288 9.89843,0.56498 2.66403,0.74115 5.25438,2.98593 6.59603,5.71609 0.95945,1.9524 0.96907,2.04344 1.08418,10.26015 0.10028,7.15735 0.0371,8.4383 -0.46237,9.37339 -1.27318,2.38367 0.15012,2.26929 -28.10681,2.25889 -23.249841,-0.008 -25.6068,-0.062 -26.474944,-0.60046 z m 16.581041,-1.93014 c 0.305582,-0.30559 0.423333,-2.76263 0.423333,-8.8335 0,-7.70179 -0.05876,-8.52041 -0.69761,-9.71903 -1.361347,-2.55417 -3.214314,-4.02142 -5.855743,-4.6368 -3.004681,-0.70001 -6.888364,0.69005 -8.457735,3.02722 -1.834566,2.73211 -1.922246,3.25722 -1.922246,11.51216 0,6.7471 0.07771,7.86887 0.583843,8.42814 0.530551,0.58625 1.264725,0.64514 8.043334,0.64514 5.331455,0 7.580259,-0.12077 7.882824,-0.42333 z m 35.761523,-0.16051 c 0.58816,-0.53227 0.64514,-1.27674 0.64514,-8.42814 0,-6.75022 -0.0869,-8.03419 -0.62328,-9.20575 -1.46064,-3.19053 -3.07246,-4.59583 -6.14752,-5.35984 -2.43141,-0.60409 -16.65409,-0.56172 -17.16271,0.0511 -0.21241,0.25593 -0.42862,2.26457 -0.48417,4.49792 l -0.10037,4.03547 h -0.88195 -0.88194 l -0.17639,-4.40972 -0.17639,-4.40973 -5.20347,-0.0976 c -5.833353,-0.10944 -6.033379,-0.009 -4.205789,2.11383 2.003839,2.32744 2.177319,3.34321 2.177319,12.74881 0,4.71741 0.10583,8.68295 0.23518,8.8123 0.12935,0.12936 7.45904,0.23519 16.2882,0.23519 14.44243,0 16.11773,-0.0586 16.69814,-0.58384 z m -14.19622,-32.7239 c 0.24445,-0.29454 0.3707,-1.34369 0.30777,-2.55763 l -0.10668,-2.05824 h -4.7625 -4.7625 l -0.10669,2.05824 c -0.0629,1.21394 0.0633,2.26309 0.30778,2.55763 0.59653,0.71878 8.52628,0.71878 9.12282,0 z"
       id="path91"
       inkscape:connector-curvature="0" />
  </g>
</svg>
