<?xml version="1.0" encoding="UTF-8" standalone="no"?>
<!-- Created with Inkscape (http://www.inkscape.org/) -->

<svg
   xmlns:dc="http://purl.org/dc/elements/1.1/"
   xmlns:cc="http://creativecommons.org/ns#"
   xmlns:rdf="http://www.w3.org/1999/02/22-rdf-syntax-ns#"
   xmlns:svg="http://www.w3.org/2000/svg"
   xmlns="http://www.w3.org/2000/svg"
   xmlns:sodipodi="http://sodipodi.sourceforge.net/DTD/sodipodi-0.dtd"
   xmlns:inkscape="http://www.inkscape.org/namespaces/inkscape"
   width="61.19265mm"
   height="38.09198mm"
   viewBox="0 0 61.19265 38.09198"
   version="1.1"
   id="svg118"
   inkscape:version="0.92.5 (2060ec1f9f, 2020-04-08)"
   sodipodi:docname="shipping.svg">
  <defs
     id="defs112" />
  <sodipodi:namedview
     id="base"
     pagecolor="#ffffff"
     bordercolor="#666666"
     borderopacity="1.0"
     inkscape:pageopacity="0.0"
     inkscape:pageshadow="2"
     inkscape:zoom="0.35"
     inkscape:cx="198.3696"
     inkscape:cy="102.54099"
     inkscape:document-units="mm"
     inkscape:current-layer="layer1"
     showgrid="false"
     inkscape:window-width="1848"
     inkscape:window-height="1016"
     inkscape:window-x="72"
     inkscape:window-y="27"
     inkscape:window-maximized="1" />
  <metadata
     id="metadata115">
    <rdf:RDF>
      <cc:Work
         rdf:about="">
        <dc:format>image/svg+xml</dc:format>
        <dc:type
           rdf:resource="http://purl.org/dc/dcmitype/StillImage" />
        <dc:title></dc:title>
      </cc:Work>
    </rdf:RDF>
  </metadata>
  <g
     inkscape:label="Layer 1"
     inkscape:groupmode="layer"
     id="layer1"
     transform="translate(-53.348043,-137.87199)">
    <path
       style="fill:#000000;stroke-width:0.35277778"
       d="m 69.270442,175.67107 c -2.359838,-0.77133 -4.409722,-2.87286 -4.409722,-4.52083 0,-1.2076 -0.733319,-1.528 -3.510139,-1.53363 -1.46491,-0.003 -2.889132,-0.14822 -3.164938,-0.32279 -0.275806,-0.17456 -0.593306,-1.00557 -0.705556,-1.84668 -0.201696,-1.51136 -0.222709,-1.53147 -1.79159,-1.71483 -1.780936,-0.20815 -2.580081,-0.58477 -2.27799,-1.07356 0.25899,-0.41905 10.285047,-0.43388 10.543564,-0.0156 0.362223,0.58609 -0.698672,1.05586 -2.631823,1.16538 -1.884504,0.10676 -1.929584,0.13404 -1.929584,1.16765 v 1.05833 l 2.645833,0.0958 2.645834,0.0958 0.83843,-1.2412 c 1.234956,-1.8282 2.786043,-2.65462 4.982403,-2.65462 2.15822,0 3.675407,0.78942 5.095538,2.65131 l 0.937592,1.22924 h 9.822081 c 8.631018,0 9.848049,-0.0677 10.036213,-0.55802 0.117775,-0.30691 0.214133,-2.0267 0.214133,-3.82176 0,-3.4219 0.157607,-3.98247 0.93768,-3.33507 0.334465,0.27758 0.473431,1.36396 0.473431,3.7011 0,2.68249 0.09855,3.3082 0.521035,3.3082 0.286569,0 0.779244,-0.39408 1.094836,-0.87573 0.961287,-1.46712 2.674667,-2.29927 4.734127,-2.29927 2.15822,0 3.67541,0.78942 5.09553,2.65131 0.68307,0.89554 1.20978,1.22924 1.94023,1.22924 1.09536,0 1.4309,-0.50856 1.4309,-2.16871 0,-1.57838 -0.54937,-2.30958 -1.92983,-2.56855 -1.40278,-0.26316 -2.3035,-1.5668 -2.3035,-3.33391 0,-1.43838 0.83294,-2.15938 2.49464,-2.15938 1.56648,0 1.75665,-0.45957 0.59217,-1.43102 -0.70964,-0.59201 -1.45812,-0.66342 -7.06312,-0.67391 l -6.269367,-0.0117 -0.401839,0.88194 c -0.221015,0.48507 -0.614486,0.88195 -0.874384,0.88195 -0.381903,0 -0.472539,-1.64425 -0.472539,-8.5725 0,-6.19713 -0.117302,-8.68981 -0.423333,-8.99584 -0.318019,-0.31802 -4.830566,-0.42333 -18.139204,-0.42333 -9.743728,0 -17.966978,0.0964 -18.273889,0.21413 -0.487186,0.18695 -0.55802,1.27861 -0.55802,8.59986 0,6.9115 -0.09031,8.46068 -0.513713,8.81207 -1.125601,0.93417 -1.250176,0.037 -1.250176,-9.00382 0,-8.50465 0.03698,-9.012 0.705556,-9.68057 0.687908,-0.68791 1.175926,-0.70556 19.511741,-0.70556 14.514382,0 18.944174,0.1009 19.410832,0.44213 0.332557,0.24317 0.704949,1.07661 0.827536,1.85208 0.122586,0.77548 0.396772,1.52659 0.609303,1.66914 0.212535,0.14255 2.188236,0.26161 4.390446,0.26458 l 4.00403,0.005 1.19944,1.19945 c 0.95401,0.954 1.19945,1.48097 1.19945,2.57527 0,0.75671 -0.14373,1.52665 -0.31939,1.71098 -0.32903,0.34526 0.26876,3.74262 0.97203,5.52419 0.21838,0.55322 0.97552,1.26092 1.79784,1.68044 2.48486,1.26768 2.87633,2.55712 2.76193,9.09717 l -0.0971,5.55278 -1.91975,0.17638 c -1.84854,0.16985 -1.93143,0.22219 -2.23476,1.41112 -0.64571,2.53091 -3.4571,4.90852 -5.83081,4.93114 -2.30935,0.022 -5.713282,-2.77109 -5.713282,-4.68802 0,-1.62789 -0.313024,-1.67069 -11.493497,-1.57136 l -10.526439,0.0935 -0.233382,1.14172 c -0.64082,3.13492 -4.44431,5.63285 -7.203628,4.73095 z m 4.409723,-2.72048 c 1.210148,-1.20085 1.282563,-4.51546 0.123963,-5.67406 -1.04098,-1.04098 -2.986334,-1.69002 -4.172853,-1.39223 -1.258825,0.31595 -2.900655,1.95778 -3.216599,3.2166 -0.477726,1.90341 0.839136,4.13289 2.848594,4.82274 1.272716,0.43692 3.487759,-0.0511 4.416895,-0.97305 z m -4.082677,-1.48189 c -0.605875,-0.41487 -0.787075,-1.25409 -0.460494,-2.13277 0.254717,-0.68532 0.514385,-0.79777 1.629339,-0.70555 1.159882,0.0959 1.340599,0.23412 1.440017,1.10116 0.06253,0.54531 -0.07597,1.22 -0.307779,1.49931 -0.448664,0.5406 -1.67397,0.66725 -2.301083,0.23785 z m 36.347962,2.39193 c 1.87747,-0.71382 2.48332,-1.64525 2.48332,-3.81784 0,-2.18207 -0.51766,-3.01379 -2.40269,-3.86036 -1.37758,-0.61867 -2.35497,-0.54883 -3.68728,0.26349 -4.409262,2.68835 -1.21802,9.24904 3.60665,7.41471 z m -2.95021,-2.9157 c -0.52335,-1.40566 0.0542,-2.20486 1.59339,-2.20486 1.2403,0 1.38151,0.0943 1.48438,0.99147 0.14805,1.29119 -0.47823,2.00714 -1.75575,2.00714 -0.74177,0 -1.10847,-0.22017 -1.32202,-0.79375 z m 9.67224,-9.45373 c 0.12612,-0.39737 0.0316,-0.96065 -0.20994,-1.25175 -0.57587,-0.69387 -1.87187,-0.49205 -2.02582,0.31549 -0.27676,1.45165 1.79661,2.3199 2.23576,0.93626 z m -4.63741,-8.62613 c -0.0503,-1.16024 -1.00902,-4.69981 -1.37144,-5.06357 -0.12499,-0.12545 -1.85621,-0.28151 -3.84715,-0.3468 -4.541236,-0.14892 -4.789648,0.0287 -4.789648,3.42474 0,1.40531 0.176654,2.55034 0.433014,2.8067 0.308567,0.30857 1.753314,0.40489 5.027074,0.33514 l 4.59407,-0.0979 z m -0.907,-7.60845 c 0.14967,-1.28599 -1.08515,-1.74016 -4.73131,-1.74016 -3.261479,0 -4.369928,0.35664 -4.369928,1.406 0,1.1404 1.045976,1.41101 5.115278,1.32339 3.87886,-0.0835 3.8806,-0.0839 3.98596,-0.98923 z m -28.59963,20.09965 c -0.34363,-0.20005 -0.532699,-0.51272 -0.420153,-0.69482 0.303917,-0.49175 15.2278,-0.43302 15.5332,0.0611 0.133321,0.21572 0.02364,0.53079 -0.243763,0.70015 -0.694439,0.43985 -14.10254,0.37993 -14.869284,-0.0665 z m -22.648029,-4.0644 c -0.340606,-0.34061 -0.45423,-0.71587 -0.271949,-0.89815 0.172206,-0.17221 3.238348,-0.26972 6.813651,-0.21671 6.233235,0.0924 6.500551,0.12541 6.500551,0.80195 0,0.67529 -0.267251,0.70969 -6.228602,0.80176 -5.413902,0.0836 -6.305127,0.0197 -6.813651,-0.48885 z m 17.884119,-6.23023 c -2.350646,-2.36644 -3.151531,-3.78407 -2.137799,-3.78407 0.226055,0 1.416707,0.96572 2.645893,2.14605 1.229186,1.18032 2.379477,2.09314 2.556203,2.02847 0.176727,-0.0647 2.165167,-1.90351 4.418756,-4.08632 3.744904,-3.62729 5.49036,-4.75817 5.49036,-3.55719 0,0.55676 -9.410562,9.81899 -9.97624,9.81899 -0.2466,0 -1.595328,-1.15467 -2.997173,-2.56593 z"
       id="path182"
       inkscape:connector-curvature="0" />
  </g>
</svg>
