<?xml version="1.0" encoding="UTF-8" standalone="no"?>
<!-- Created with Inkscape (http://www.inkscape.org/) -->

<svg
   xmlns:dc="http://purl.org/dc/elements/1.1/"
   xmlns:cc="http://creativecommons.org/ns#"
   xmlns:rdf="http://www.w3.org/1999/02/22-rdf-syntax-ns#"
   xmlns:svg="http://www.w3.org/2000/svg"
   xmlns="http://www.w3.org/2000/svg"
   xmlns:sodipodi="http://sodipodi.sourceforge.net/DTD/sodipodi-0.dtd"
   xmlns:inkscape="http://www.inkscape.org/namespaces/inkscape"
   width="56.956184mm"
   height="52.833897mm"
   viewBox="0 0 56.956184 52.833897"
   version="1.1"
   id="svg209"
   inkscape:version="0.92.5 (2060ec1f9f, 2020-04-08)"
   sodipodi:docname="shopping-cart.svg">
  <defs
     id="defs203" />
  <sodipodi:namedview
     id="base"
     pagecolor="#ffffff"
     bordercolor="#666666"
     borderopacity="1.0"
     inkscape:pageopacity="0.0"
     inkscape:pageshadow="2"
     inkscape:zoom="0.35"
     inkscape:cx="167.49621"
     inkscape:cy="-157.35397"
     inkscape:document-units="mm"
     inkscape:current-layer="layer1"
     showgrid="false"
     inkscape:window-width="1848"
     inkscape:window-height="1016"
     inkscape:window-x="72"
     inkscape:window-y="27"
     inkscape:window-maximized="1" />
  <metadata
     id="metadata206">
    <rdf:RDF>
      <cc:Work
         rdf:about="">
        <dc:format>image/svg+xml</dc:format>
        <dc:type
           rdf:resource="http://purl.org/dc/dcmitype/StillImage" />
        <dc:title></dc:title>
      </cc:Work>
    </rdf:RDF>
  </metadata>
  <g
     inkscape:label="Layer 1"
     inkscape:groupmode="layer"
     id="layer1"
     transform="translate(-61.516627,-54.366199)">
    <path
       style="fill:#000000;stroke-width:0.35277778"
       d="m 83.268218,106.4622 c -2.93351,-1.50423 -3.63898,-4.44716 -1.68134,-7.013801 1.33835,-1.75469 3.01298,-2.30541 5.21076,-1.7136 2.07506,0.55875 3.1607,2.09256 3.1607,4.465491 0,2.277 -0.73897,3.46022 -2.7584,4.41668 -1.69936,0.80487 -2.09026,0.78948 -3.93172,-0.15477 z m 3.75696,-2.79553 c 1.0088,-0.94771 1.03065,-1.68776 0.0853,-2.88954 -1.23501,-1.570071 -3.25157,-1.089251 -3.97645,0.94812 -0.23646,0.66459 0.28731,1.98394 0.96806,2.43849 0.74444,0.49707 2.11248,0.26444 2.92306,-0.49707 z m 14.222052,3.02857 c -2.071722,-0.89445 -2.822232,-2.06612 -2.822232,-4.40599 0,-1.66929 0.16247,-2.22781 0.90463,-3.109811 1.062442,-1.26264 2.937092,-1.87223 4.827822,-1.56989 1.61543,0.25832 3.31573,2.10002 3.66688,3.971821 0.33888,1.80641 -0.94233,4.03443 -2.85143,4.95861 -1.74481,0.84464 -2.09512,0.85925 -3.72567,0.15526 z m 3.32619,-2.81588 c 1.26884,-1.26885 0.15336,-4.031751 -1.62776,-4.031751 -1.00701,0 -2.40399,1.329591 -2.40399,2.288031 0,1.83629 2.74987,3.0256 4.03175,1.74372 z M 75.875358,93.629639 c -0.40353,-0.513 -0.73236,-1.26851 -0.73073,-1.67891 0.002,-0.4104 -0.24905,-1.85742 -0.55706,-3.21562 -0.30801,-1.35819 -0.77191,-3.50132 -1.03089,-4.7625 -0.46209,-2.25032 -1.17023,-5.67946 -2.11268,-10.23055 -0.26117,-1.26119 -0.72911,-3.52276 -1.03988,-5.02573 -1.10065,-5.32307 -1.70608,-8.2082 -1.80194,-8.58698 -0.0968,-0.38252 -3.90246,-2.36511 -5.32023,-2.77162 -0.41098,-0.11783 -1.01921,-0.51477 -1.35162,-0.88209 -0.57257,-0.63268 -0.56644,-0.7058 0.1164,-1.38865 l 0.7208,-0.72079 2.04193,0.88743 c 4.57674,1.98909 5.75812,2.71147 5.96223,3.64575 0.1091,0.49937 0.47549,1.78108 0.8142,2.84823 l 0.61584,1.94028 22.51046,0.17639 22.510462,0.17639 0.7121,0.9539 c 0.68352,0.91562 0.69015,1.04302 0.16511,3.175 -0.52934,2.14948 -1.09569,4.80895 -2.20144,10.3377 -1.67426,8.3713 -1.97256,9.05031 -4.16895,9.48959 -0.6108,0.12216 -8.41825,0.21615 -17.349872,0.20888 -8.93163,-0.007 -16.43776,-0.0102 -16.68029,-0.007 -0.67811,0.0103 -0.54635,2.62323 0.17639,3.49797 0.6113,0.73985 0.78359,0.74803 17.55069,0.83283 l 16.933342,0.0856 v 0.88195 0.88194 l -17.875342,0.0914 -17.87534,0.0914 -0.73369,-0.93274 z m 36.096452,-8.68689 c 0.13825,-0.51189 1.11776,-5.05723 1.80553,-8.37847 0.26116,-1.26118 0.73196,-3.48368 1.0462,-4.93889 0.31425,-1.45521 0.60282,-3.28083 0.64127,-4.05695 l 0.0699,-1.41111 H 94.191648 72.848588 l 0.099,1.94028 c 0.0545,1.06715 0.26756,2.46333 0.47355,3.10261 0.20598,0.63928 0.51404,1.98865 0.68457,2.99861 0.58855,3.48568 1.7717,9.03431 2.29094,10.74392 0.19586,0.64483 35.400942,0.64483 35.575112,0 z m -27.456332,-4.6995 c -0.66535,-0.66535 -0.68893,-0.93385 -0.13103,-1.49175 0.3081,-0.3081 2.98509,-0.42333 9.83458,-0.42333 7.986842,0 9.478552,0.0811 9.855912,0.53578 0.3639,0.43847 0.32977,0.66274 -0.18787,1.23472 -0.59937,0.6623 -1.10925,0.69894 -9.724882,0.69894 -7.7954,0 -9.17142,-0.0791 -9.64671,-0.55436 z m -1.18431,-7.27225 c -0.62295,-0.62295 -0.52567,-1.26872 0.25398,-1.68598 0.42438,-0.22712 4.46682,-0.36519 10.69229,-0.36519 8.165052,0 10.136142,0.0937 10.694722,0.50851 0.54821,0.40708 0.60679,0.63576 0.29372,1.14653 -0.36107,0.58909 -1.2007,0.64517 -10.948692,0.73127 -7.91601,0.0699 -10.66481,-0.0139 -10.98602,-0.33514 z"
       id="path273"
       inkscape:connector-curvature="0" />
  </g>
</svg>
